{
	"asset":{
		"generator":"Khronos glTF Blender I/O v4.2.60",
		"version":"2.0"
	},
	"extensionsUsed":[
		"KHR_texture_transform",
		"KHR_materials_sheen"
	],
	"extensionsRequired":[
		"KHR_texture_transform"
	],
	"scene":0,
	"scenes":[
		{
			"name":"Scene",
			"nodes":[
				0,
				1
			]
		}
	],
	"nodes":[
		{
			"mesh":0,
			"name":"book_open",
			"rotation":[
				0,
				0,
				-0.5924051403999329,
				0.8056402206420898
			],
			"scale":[
				0.42740222811698914,
				0.42740222811698914,
				0.42740216851234436
			],
			"translation":[
				-3.350785970687866,
				2.1683571338653564,
				0.3021984100341797
			]
		},
		{
			"mesh":1,
			"name":"book_closed",
			"rotation":[
				-0.5056195855140686,
				0.3515881597995758,
				-0.5008533000946045,
				0.6081782579421997
			],
			"scale":[
				0.4276449680328369,
				0.4276449978351593,
				0.4276449978351593
			],
			"translation":[
				-3.3544256687164307,
				2.179394006729126,
				0.5483232736587524
			]
		}
	],
	"materials":[
		{
			"doubleSided":true,
			"name":"Material.001",
			"pbrMetallicRoughness":{
				"baseColorFactor":[
					0.800000011920929,
					0.800000011920929,
					0.800000011920929,
					1
				],
				"metallicFactor":0,
				"roughnessFactor":0.5
			}
		},
		{
			"doubleSided":true,
			"name":"Red Fabric",
			"normalTexture":{
				"index":0
			},
			"pbrMetallicRoughness":{
				"baseColorTexture":{
					"index":1
				},
				"metallicFactor":0
			}
		},
		{
			"doubleSided":true,
			"extensions":{
				"KHR_materials_sheen":{
					"sheenColorFactor":[
						1.0,
						1.0,
						1.0
					],
					"sheenRoughnessFactor":0.16465255618095398
				}
			},
			"name":"Dark Red Leather",
			"pbrMetallicRoughness":{
				"baseColorTexture":{
					"extensions":{
						"KHR_texture_transform":{
							"offset":[
								55.89999771118164,
								0
							]
						}
					},
					"index":2
				},
				"metallicFactor":0
			}
		}
	],
	"meshes":[
		{
			"name":"Cube.036",
			"primitives":[
				{
					"attributes":{
						"POSITION":0,
						"NORMAL":1,
						"TEXCOORD_0":2
					},
					"indices":3,
					"material":0
				},
				{
					"attributes":{
						"POSITION":4,
						"NORMAL":5,
						"TEXCOORD_0":6
					},
					"indices":7,
					"material":1
				}
			]
		},
		{
			"name":"Cube.034",
			"primitives":[
				{
					"attributes":{
						"POSITION":8,
						"NORMAL":9,
						"TEXCOORD_0":10
					},
					"indices":11,
					"material":2
				},
				{
					"attributes":{
						"POSITION":12,
						"NORMAL":13,
						"TEXCOORD_0":14
					},
					"indices":15,
					"material":0
				}
			]
		}
	],
	"textures":[
		{
			"sampler":0,
			"source":0
		},
		{
			"sampler":0,
			"source":1
		},
		{
			"sampler":0,
			"source":2
		}
	],
	"images":[
		{
			"bufferView":8,
			"mimeType":"image/jpeg",
			"name":"fabric_191_Normal"
		},
		{
			"bufferView":9,
			"mimeType":"image/jpeg",
			"name":"fabric_191_Albedo"
		},
		{
			"bufferView":14,
			"mimeType":"image/jpeg",
			"name":"Dark Red Leather"
		}
	],
	"accessors":[
		{
			"bufferView":0,
			"componentType":5126,
			"count":44,
			"max":[
				0.8349550366401672,
				0.33611202239990234,
				1.3313120603561401
			],
			"min":[
				-0.8349550366401672,
				0.05134201794862747,
				-1.3313120603561401
			],
			"type":"VEC3"
		},
		{
			"bufferView":1,
			"componentType":5126,
			"count":44,
			"type":"VEC3"
		},
		{
			"bufferView":2,
			"componentType":5126,
			"count":44,
			"type":"VEC2"
		},
		{
			"bufferView":3,
			"componentType":5123,
			"count":66,
			"type":"SCALAR"
		},
		{
			"bufferView":4,
			"componentType":5126,
			"count":76,
			"max":[
				1.069451928138733,
				0.20131425559520721,
				1.5449057817459106
			],
			"min":[
				-1.069451928138733,
				-0.14239263534545898,
				-1.5449057817459106
			],
			"type":"VEC3"
		},
		{
			"bufferView":5,
			"componentType":5126,
			"count":76,
			"type":"VEC3"
		},
		{
			"bufferView":6,
			"componentType":5126,
			"count":76,
			"type":"VEC2"
		},
		{
			"bufferView":7,
			"componentType":5123,
			"count":114,
			"type":"SCALAR"
		},
		{
			"bufferView":10,
			"componentType":5126,
			"count":60,
			"max":[
				1,
				1.4416176080703735,
				0.2622268497943878
			],
			"min":[
				-1,
				-0.051886171102523804,
				-0.2622268497943878
			],
			"type":"VEC3"
		},
		{
			"bufferView":11,
			"componentType":5126,
			"count":60,
			"type":"VEC3"
		},
		{
			"bufferView":12,
			"componentType":5126,
			"count":60,
			"type":"VEC2"
		},
		{
			"bufferView":13,
			"componentType":5123,
			"count":90,
			"type":"SCALAR"
		},
		{
			"bufferView":15,
			"componentType":5126,
			"count":12,
			"max":[
				0.9487019777297974,
				1.3878270387649536,
				0.13124403357505798
			],
			"min":[
				-0.9487019777297974,
				0.07748960703611374,
				-0.13124403357505798
			],
			"type":"VEC3"
		},
		{
			"bufferView":16,
			"componentType":5126,
			"count":12,
			"type":"VEC3"
		},
		{
			"bufferView":17,
			"componentType":5126,
			"count":12,
			"type":"VEC2"
		},
		{
			"bufferView":18,
			"componentType":5123,
			"count":18,
			"type":"SCALAR"
		}
	],
	"bufferViews":[
		{
			"buffer":0,
			"byteLength":528,
			"byteOffset":0,
			"target":34962
		},
		{
			"buffer":0,
			"byteLength":528,
			"byteOffset":528,
			"target":34962
		},
		{
			"buffer":0,
			"byteLength":352,
			"byteOffset":1056,
			"target":34962
		},
		{
			"buffer":0,
			"byteLength":132,
			"byteOffset":1408,
			"target":34963
		},
		{
			"buffer":0,
			"byteLength":912,
			"byteOffset":1540,
			"target":34962
		},
		{
			"buffer":0,
			"byteLength":912,
			"byteOffset":2452,
			"target":34962
		},
		{
			"buffer":0,
			"byteLength":608,
			"byteOffset":3364,
			"target":34962
		},
		{
			"buffer":0,
			"byteLength":228,
			"byteOffset":3972,
			"target":34963
		},
		{
			"buffer":0,
			"byteLength":77125,
			"byteOffset":4200
		},
		{
			"buffer":0,
			"byteLength":181476,
			"byteOffset":81328
		},
		{
			"buffer":0,
			"byteLength":720,
			"byteOffset":262804,
			"target":34962
		},
		{
			"buffer":0,
			"byteLength":720,
			"byteOffset":263524,
			"target":34962
		},
		{
			"buffer":0,
			"byteLength":480,
			"byteOffset":264244,
			"target":34962
		},
		{
			"buffer":0,
			"byteLength":180,
			"byteOffset":264724,
			"target":34963
		},
		{
			"buffer":0,
			"byteLength":144706,
			"byteOffset":264904
		},
		{
			"buffer":0,
			"byteLength":144,
			"byteOffset":409612,
			"target":34962
		},
		{
			"buffer":0,
			"byteLength":144,
			"byteOffset":409756,
			"target":34962
		},
		{
			"buffer":0,
			"byteLength":96,
			"byteOffset":409900,
			"target":34962
		},
		{
			"buffer":0,
			"byteLength":36,
			"byteOffset":409996,
			"target":34963
		}
	],
	"samplers":[
		{
			"magFilter":9729,
			"minFilter":9987
		}
	],
	"buffers":[
		{
			"byteLength":410032,
			"uri":"data:application/octet-stream;base64,"
		}
	]
}
