{
	"asset":{
		"generator":"Khronos glTF Blender I/O v4.2.60",
		"version":"2.0"
	},
	"extensionsUsed":[
		"KHR_materials_sheen"
	],
	"scene":0,
	"scenes":[
		{
			"name":"Scene",
			"nodes":[
				0,
				1,
				2
			]
		}
	],
	"nodes":[
		{
			"mesh":0,
			"name":"Plane.001",
			"rotation":[
				-0.05728680640459061,
				0.7322912216186523,
				-0.031027289107441902,
				0.677868127822876
			],
			"scale":[
				0.5668418407440186,
				0.34075120091438293,
				0.34075120091438293
			],
			"translation":[
				1.0135101079940796,
				4.695091247558594,
				-0.17757821083068848
			]
		},
		{
			"mesh":1,
			"name":"Cylinder",
			"rotation":[
				0,
				0.737204909324646,
				0,
				0.675669252872467
			],
			"scale":[
				1.145865559577942,
				2.16204833984375,
				1.145865559577942
			],
			"translation":[
				0.9881290197372437,
				2.6527488231658936,
				-0.4278053939342499
			]
		},
		{
			"mesh":2,
			"name":"Cylinder.002",
			"rotation":[
				-0.02791552245616913,
				-0.0023907108698040247,
				0.004477654118090868,
				0.999597430229187
			],
			"scale":[
				0.10020717978477478,
				0.10020718723535538,
				0.10020717978477478
			],
			"translation":[
				1.0165306329727173,
				4.634339332580566,
				-0.415459007024765
			]
		}
	],
	"materials":[
		{
			"doubleSided":true,
			"name":"Material",
			"pbrMetallicRoughness":{
				"baseColorTexture":{
					"index":0
				},
				"metallicFactor":0.6327272653579712,
				"roughnessFactor":0.5
			}
		},
		{
			"doubleSided":true,
			"extensions":{
				"KHR_materials_sheen":{
					"sheenColorFactor":[
						1.0,
						1.0,
						1.0
					],
					"sheenRoughnessFactor":0.33636361360549927
				}
			},
			"name":"Material.001",
			"pbrMetallicRoughness":{
				"baseColorTexture":{
					"index":1
				},
				"metallicFactor":0.7672727108001709,
				"metallicRoughnessTexture":{
					"index":2
				}
			}
		},
		{
			"doubleSided":true,
			"name":"Material.002",
			"pbrMetallicRoughness":{
				"baseColorFactor":[
					0.27329686284065247,
					0.27329686284065247,
					0.27329686284065247,
					1
				],
				"metallicFactor":0,
				"roughnessFactor":0.5
			}
		}
	],
	"meshes":[
		{
			"name":"Plane.003",
			"primitives":[
				{
					"attributes":{
						"POSITION":0,
						"NORMAL":1,
						"TEXCOORD_0":2
					},
					"indices":3,
					"material":0
				}
			]
		},
		{
			"name":"Cylinder.001",
			"primitives":[
				{
					"attributes":{
						"POSITION":4,
						"NORMAL":5,
						"TEXCOORD_0":6
					},
					"indices":7,
					"material":1
				}
			]
		},
		{
			"name":"Cylinder.002",
			"primitives":[
				{
					"attributes":{
						"POSITION":8,
						"NORMAL":9,
						"TEXCOORD_0":10
					},
					"indices":11,
					"material":2
				}
			]
		}
	],
	"textures":[
		{
			"sampler":0,
			"source":0
		},
		{
			"sampler":0,
			"source":0
		},
		{
			"sampler":0,
			"source":1
		}
	],
	"images":[
		{
			"bufferView":4,
			"mimeType":"image/jpeg",
			"name":"fienne-another-novice-can-base-color.jpg"
		},
		{
			"bufferView":9,
			"mimeType":"image/png",
			"name":"fienne-another-novice-can-normal.jpg"
		}
	],
	"accessors":[
		{
			"bufferView":0,
			"componentType":5126,
			"count":1074,
			"max":[
				0.9899581074714661,
				0.158927783370018,
				0.9895833730697632
			],
			"min":[
				-0.9773568511009216,
				0,
				-0.9895833730697632
			],
			"type":"VEC3"
		},
		{
			"bufferView":1,
			"componentType":5126,
			"count":1074,
			"type":"VEC3"
		},
		{
			"bufferView":2,
			"componentType":5126,
			"count":1074,
			"type":"VEC2"
		},
		{
			"bufferView":3,
			"componentType":5123,
			"count":4224,
			"type":"SCALAR"
		},
		{
			"bufferView":5,
			"componentType":5126,
			"count":1197,
			"max":[
				1,
				0.9497044682502747,
				1
			],
			"min":[
				-1,
				-0.9685275554656982,
				-1
			],
			"type":"VEC3"
		},
		{
			"bufferView":6,
			"componentType":5126,
			"count":1197,
			"type":"VEC3"
		},
		{
			"bufferView":7,
			"componentType":5126,
			"count":1197,
			"type":"VEC2"
		},
		{
			"bufferView":8,
			"componentType":5123,
			"count":6189,
			"type":"SCALAR"
		},
		{
			"bufferView":10,
			"componentType":5126,
			"count":242,
			"max":[
				1,
				1,
				1
			],
			"min":[
				-1.072726845741272,
				-0.017585724592208862,
				-1.0383224487304688
			],
			"type":"VEC3"
		},
		{
			"bufferView":11,
			"componentType":5126,
			"count":242,
			"type":"VEC3"
		},
		{
			"bufferView":12,
			"componentType":5126,
			"count":242,
			"type":"VEC2"
		},
		{
			"bufferView":13,
			"componentType":5123,
			"count":756,
			"type":"SCALAR"
		}
	],
	"bufferViews":[
		{
			"buffer":0,
			"byteLength":12888,
			"byteOffset":0,
			"target":34962
		},
		{
			"buffer":0,
			"byteLength":12888,
			"byteOffset":12888,
			"target":34962
		},
		{
			"buffer":0,
			"byteLength":8592,
			"byteOffset":25776,
			"target":34962
		},
		{
			"buffer":0,
			"byteLength":8448,
			"byteOffset":34368,
			"target":34963
		},
		{
			"buffer":0,
			"byteLength":675048,
			"byteOffset":42816
		},
		{
			"buffer":0,
			"byteLength":14364,
			"byteOffset":717864,
			"target":34962
		},
		{
			"buffer":0,
			"byteLength":14364,
			"byteOffset":732228,
			"target":34962
		},
		{
			"buffer":0,
			"byteLength":9576,
			"byteOffset":746592,
			"target":34962
		},
		{
			"buffer":0,
			"byteLength":12378,
			"byteOffset":756168,
			"target":34963
		},
		{
			"buffer":0,
			"byteLength":201112,
			"byteOffset":768548
		},
		{
			"buffer":0,
			"byteLength":2904,
			"byteOffset":969660,
			"target":34962
		},
		{
			"buffer":0,
			"byteLength":2904,
			"byteOffset":972564,
			"target":34962
		},
		{
			"buffer":0,
			"byteLength":1936,
			"byteOffset":975468,
			"target":34962
		},
		{
			"buffer":0,
			"byteLength":1512,
			"byteOffset":977404,
			"target":34963
		}
	],
	"samplers":[
		{
			"magFilter":9729,
			"minFilter":9987
		}
	],
	"buffers":[
		{
			"byteLength":978916,
			"uri":"data:application/octet-stream;base64,"
		}
	]
}
