{
	"asset":{
		"generator":"Khronos glTF Blender I/O v4.2.60",
		"version":"2.0"
	},
	"extensionsUsed":[
		"KHR_materials_specular",
		"KHR_materials_ior",
		"KHR_texture_transform",
		"KHR_materials_sheen"
	],
	"extensionsRequired":[
		"KHR_texture_transform"
	],
	"scene":0,
	"scenes":[
		{
			"name":"Scene",
			"nodes":[
				0,
				1,
				2,
				3,
				4,
				5,
				6
			]
		}
	],
	"nodes":[
		{
			"mesh":0,
			"name":"pedestal",
			"scale":[
				0.47398459911346436,
				0.47398459911346436,
				0.47398459911346436
			],
			"translation":[
				-3.4207324981689453,
				1.3103513717651367,
				0.3303203582763672
			]
		},
		{
			"mesh":1,
			"name":"Cylinder.011",
			"rotation":[
				0.7080901265144348,
				0,
				0,
				0.7061221599578857
			],
			"scale":[
				0.04791633412241936,
				0.04791633039712906,
				0.04791633039712906
			],
			"translation":[
				4.201854705810547,
				1.0966607332229614,
				0.814906120300293
			]
		},
		{
			"mesh":2,
			"name":"Cylinder",
			"scale":[
				0.32629573345184326,
				0.32629573345184326,
				0.32629573345184326
			],
			"translation":[
				-1.6845780611038208,
				1.1838403940200806,
				0.3158912658691406
			]
		},
		{
			"mesh":3,
			"name":"Cube.004",
			"rotation":[
				0,
				-0.7064720392227173,
				0,
				0.7077410221099854
			],
			"scale":[
				0.6980078220367432,
				0.6980079412460327,
				0.6980078220367432
			],
			"translation":[
				0.11197888851165771,
				1.679327368736267,
				0.3861045837402344
			]
		},
		{
			"mesh":4,
			"name":"Cube",
			"rotation":[
				0,
				-0.7075432538986206,
				0,
				0.7066701054573059
			],
			"scale":[
				0.6057567000389099,
				0.6057566404342651,
				0.6057567000389099
			],
			"translation":[
				2.2431578636169434,
				1.1240572929382324,
				0.3625507354736328
			]
		},
		{
			"mesh":5,
			"name":"book_open",
			"rotation":[
				0,
				0,
				-0.32145217061042786,
				0.9469258785247803
			],
			"scale":[
				0.4274022579193115,
				0.4274022579193115,
				0.42740216851234436
			],
			"translation":[
				-3.347940444946289,
				2.1704115867614746,
				0.3021984100341797
			]
		},
		{
			"mesh":6,
			"name":"book_closed",
			"rotation":[
				-0.5881885886192322,
				0.18248148262500763,
				-0.2938061058521271,
				0.7310353517532349
			],
			"scale":[
				0.4276449978351593,
				0.4276449978351593,
				0.4276449978351593
			],
			"translation":[
				-3.357271194458008,
				2.177339553833008,
				0.31444549560546875
			]
		}
	],
	"materials":[
		{
			"doubleSided":true,
			"extensions":{
				"KHR_materials_specular":{
					"specularFactor":0,
					"specularColorFactor":[
						0.5047314763069153,
						0.4390519857406616,
						0.05640482157468796
					]
				}
			},
			"name":"Painted Plaster Wall",
			"normalTexture":{
				"index":0
			},
			"pbrMetallicRoughness":{
				"baseColorTexture":{
					"index":1
				},
				"metallicFactor":0
			}
		},
		{
			"doubleSided":true,
			"name":"Material.006",
			"pbrMetallicRoughness":{
				"baseColorTexture":{
					"index":2
				},
				"metallicFactor":0,
				"roughnessFactor":0.5
			}
		},
		{
			"doubleSided":true,
			"name":"Material.007",
			"pbrMetallicRoughness":{
				"baseColorFactor":[
					0.800000011920929,
					0.800000011920929,
					0.800000011920929,
					1
				],
				"metallicFactor":0,
				"roughnessFactor":0.5
			}
		},
		{
			"doubleSided":true,
			"extensions":{
				"KHR_materials_specular":{
					"specularColorFactor":[
						2.0,
						2.0,
						2.0
					]
				},
				"KHR_materials_ior":{
					"ior":1.4500000476837158
				}
			},
			"name":"Wooden panels",
			"normalTexture":{
				"extensions":{
					"KHR_texture_transform":{
						"offset":[
							0,
							-0.7999999523162842
						],
						"scale":[
							1.7999999523162842,
							1.7999999523162842
						]
					}
				},
				"index":3,
				"scale":0.5
			},
			"pbrMetallicRoughness":{
				"baseColorTexture":{
					"extensions":{
						"KHR_texture_transform":{
							"offset":[
								0,
								-0.7999999523162842
							],
							"scale":[
								1.7999999523162842,
								1.7999999523162842
							]
						}
					},
					"index":4
				},
				"metallicFactor":0
			}
		},
		{
			"doubleSided":true,
			"name":"Material.001",
			"pbrMetallicRoughness":{
				"baseColorFactor":[
					0.800000011920929,
					0.800000011920929,
					0.800000011920929,
					1
				],
				"metallicFactor":0,
				"roughnessFactor":0.5
			}
		},
		{
			"doubleSided":true,
			"name":"Red Fabric",
			"normalTexture":{
				"index":5
			},
			"pbrMetallicRoughness":{
				"baseColorTexture":{
					"index":6
				},
				"metallicFactor":0
			}
		},
		{
			"doubleSided":true,
			"extensions":{
				"KHR_materials_sheen":{
					"sheenColorFactor":[
						1.0,
						1.0,
						1.0
					],
					"sheenRoughnessFactor":0.16465255618095398
				}
			},
			"name":"Dark Red Leather",
			"pbrMetallicRoughness":{
				"baseColorTexture":{
					"extensions":{
						"KHR_texture_transform":{
							"offset":[
								55.89999771118164,
								0
							]
						}
					},
					"index":7
				},
				"metallicFactor":0
			}
		}
	],
	"meshes":[
		{
			"name":"Cube.017",
			"primitives":[
				{
					"attributes":{
						"POSITION":0,
						"NORMAL":1,
						"TEXCOORD_0":2
					},
					"indices":3,
					"material":0
				}
			]
		},
		{
			"name":"Cylinder.012",
			"primitives":[
				{
					"attributes":{
						"POSITION":4,
						"NORMAL":5,
						"TEXCOORD_0":6
					},
					"indices":7,
					"material":1
				},
				{
					"attributes":{
						"POSITION":8,
						"NORMAL":9,
						"TEXCOORD_0":10
					},
					"indices":11,
					"material":2
				}
			]
		},
		{
			"name":"Cylinder",
			"primitives":[
				{
					"attributes":{
						"POSITION":12,
						"NORMAL":13,
						"TEXCOORD_0":14
					},
					"indices":15,
					"material":1
				}
			]
		},
		{
			"name":"Cube.055",
			"primitives":[
				{
					"attributes":{
						"POSITION":16,
						"NORMAL":17,
						"TEXCOORD_0":18
					},
					"indices":19,
					"material":1
				},
				{
					"attributes":{
						"POSITION":20,
						"NORMAL":21,
						"TEXCOORD_0":22
					},
					"indices":23,
					"material":3
				}
			]
		},
		{
			"name":"Cube.052",
			"primitives":[
				{
					"attributes":{
						"POSITION":24,
						"NORMAL":25,
						"TEXCOORD_0":26
					},
					"indices":27,
					"material":3
				}
			]
		},
		{
			"name":"Cube.036",
			"primitives":[
				{
					"attributes":{
						"POSITION":28,
						"NORMAL":29,
						"TEXCOORD_0":30
					},
					"indices":31,
					"material":4
				},
				{
					"attributes":{
						"POSITION":32,
						"NORMAL":33,
						"TEXCOORD_0":34
					},
					"indices":35,
					"material":5
				}
			]
		},
		{
			"name":"Cube.034",
			"primitives":[
				{
					"attributes":{
						"POSITION":36,
						"NORMAL":37,
						"TEXCOORD_0":38
					},
					"indices":39,
					"material":6
				},
				{
					"attributes":{
						"POSITION":40,
						"NORMAL":41,
						"TEXCOORD_0":42
					},
					"indices":43,
					"material":4
				}
			]
		}
	],
	"textures":[
		{
			"sampler":0,
			"source":0
		},
		{
			"sampler":0,
			"source":1
		},
		{
			"sampler":0,
			"source":2
		},
		{
			"sampler":0,
			"source":3
		},
		{
			"sampler":0,
			"source":4
		},
		{
			"sampler":0,
			"source":5
		},
		{
			"sampler":0,
			"source":6
		},
		{
			"sampler":0,
			"source":7
		}
	],
	"images":[
		{
			"bufferView":4,
			"mimeType":"image/jpeg",
			"name":"painted_plaster_wall_18_normal"
		},
		{
			"bufferView":5,
			"mimeType":"image/jpeg",
			"name":"painted_plaster_wall_18_color"
		},
		{
			"bufferView":10,
			"mimeType":"image/png",
			"name":"capstone_blockout_Poster"
		},
		{
			"bufferView":27,
			"mimeType":"image/jpeg",
			"name":"plane_divided_DefaultMaterial_Normal("
		},
		{
			"bufferView":28,
			"mimeType":"image/jpeg",
			"name":"plane_divided_DefaultMaterial_BaseColor"
		},
		{
			"bufferView":41,
			"mimeType":"image/jpeg",
			"name":"fabric_191_Normal"
		},
		{
			"bufferView":42,
			"mimeType":"image/jpeg",
			"name":"fabric_191_Albedo"
		},
		{
			"bufferView":47,
			"mimeType":"image/jpeg",
			"name":"Dark Red Leather"
		}
	],
	"accessors":[
		{
			"bufferView":0,
			"componentType":5126,
			"count":248,
			"max":[
				1.352613091468811,
				2.7827494144439697,
				1.408632516860962
			],
			"min":[
				-1.1591157913208008,
				-1,
				-1.408632516860962
			],
			"type":"VEC3"
		},
		{
			"bufferView":1,
			"componentType":5126,
			"count":248,
			"type":"VEC3"
		},
		{
			"bufferView":2,
			"componentType":5126,
			"count":248,
			"type":"VEC2"
		},
		{
			"bufferView":3,
			"componentType":5123,
			"count":396,
			"type":"SCALAR"
		},
		{
			"bufferView":6,
			"componentType":5126,
			"count":740,
			"max":[
				10.87038516998291,
				20.45397186279297,
				1.0267915725708008
			],
			"min":[
				-10.726670265197754,
				-20.244972229003906,
				-5.1952362060546875
			],
			"type":"VEC3"
		},
		{
			"bufferView":7,
			"componentType":5126,
			"count":740,
			"type":"VEC3"
		},
		{
			"bufferView":8,
			"componentType":5126,
			"count":740,
			"type":"VEC2"
		},
		{
			"bufferView":9,
			"componentType":5123,
			"count":2238,
			"type":"SCALAR"
		},
		{
			"bufferView":11,
			"componentType":5126,
			"count":288,
			"max":[
				9.317911148071289,
				19.369129180908203,
				2.132906913757324
			],
			"min":[
				-9.172246932983398,
				-19.16014289855957,
				0.3740229606628418
			],
			"type":"VEC3"
		},
		{
			"bufferView":12,
			"componentType":5126,
			"count":288,
			"type":"VEC3"
		},
		{
			"bufferView":13,
			"componentType":5126,
			"count":288,
			"type":"VEC2"
		},
		{
			"bufferView":14,
			"componentType":5123,
			"count":990,
			"type":"SCALAR"
		},
		{
			"bufferView":15,
			"componentType":5126,
			"count":112,
			"max":[
				1,
				1,
				1
			],
			"min":[
				-1,
				-0.9999999403953552,
				-1
			],
			"type":"VEC3"
		},
		{
			"bufferView":16,
			"componentType":5126,
			"count":112,
			"type":"VEC3"
		},
		{
			"bufferView":17,
			"componentType":5126,
			"count":112,
			"type":"VEC2"
		},
		{
			"bufferView":18,
			"componentType":5123,
			"count":276,
			"type":"SCALAR"
		},
		{
			"bufferView":19,
			"componentType":5126,
			"count":120,
			"max":[
				1.013722538948059,
				-0.09426267445087433,
				1.013722538948059
			],
			"min":[
				-1.013722538948059,
				-1.2431848049163818,
				-1.013722538948059
			],
			"type":"VEC3"
		},
		{
			"bufferView":20,
			"componentType":5126,
			"count":120,
			"type":"VEC3"
		},
		{
			"bufferView":21,
			"componentType":5126,
			"count":120,
			"type":"VEC2"
		},
		{
			"bufferView":22,
			"componentType":5123,
			"count":180,
			"type":"SCALAR"
		},
		{
			"bufferView":23,
			"componentType":5126,
			"count":64,
			"max":[
				0.9568255543708801,
				-0.9999994039535522,
				0.955909252166748
			],
			"min":[
				-0.9579851627349854,
				-1.2431848049163818,
				-0.9589828252792358
			],
			"type":"VEC3"
		},
		{
			"bufferView":24,
			"componentType":5126,
			"count":64,
			"type":"VEC3"
		},
		{
			"bufferView":25,
			"componentType":5126,
			"count":64,
			"type":"VEC2"
		},
		{
			"bufferView":26,
			"componentType":5123,
			"count":96,
			"type":"SCALAR"
		},
		{
			"bufferView":29,
			"componentType":5126,
			"count":216,
			"max":[
				1.1239582300186157,
				0.47786855697631836,
				0.7206464409828186
			],
			"min":[
				-1.123957872390747,
				-0.49706876277923584,
				-0.7206462025642395
			],
			"type":"VEC3"
		},
		{
			"bufferView":30,
			"componentType":5126,
			"count":216,
			"type":"VEC3"
		},
		{
			"bufferView":31,
			"componentType":5126,
			"count":216,
			"type":"VEC2"
		},
		{
			"bufferView":32,
			"componentType":5123,
			"count":396,
			"type":"SCALAR"
		},
		{
			"bufferView":33,
			"componentType":5126,
			"count":44,
			"max":[
				0.8349550366401672,
				0.33611202239990234,
				1.3313120603561401
			],
			"min":[
				-0.8349550366401672,
				0.05134201794862747,
				-1.3313120603561401
			],
			"type":"VEC3"
		},
		{
			"bufferView":34,
			"componentType":5126,
			"count":44,
			"type":"VEC3"
		},
		{
			"bufferView":35,
			"componentType":5126,
			"count":44,
			"type":"VEC2"
		},
		{
			"bufferView":36,
			"componentType":5123,
			"count":66,
			"type":"SCALAR"
		},
		{
			"bufferView":37,
			"componentType":5126,
			"count":76,
			"max":[
				1.069451928138733,
				0.20131425559520721,
				1.5449057817459106
			],
			"min":[
				-1.069451928138733,
				-0.14239263534545898,
				-1.5449057817459106
			],
			"type":"VEC3"
		},
		{
			"bufferView":38,
			"componentType":5126,
			"count":76,
			"type":"VEC3"
		},
		{
			"bufferView":39,
			"componentType":5126,
			"count":76,
			"type":"VEC2"
		},
		{
			"bufferView":40,
			"componentType":5123,
			"count":114,
			"type":"SCALAR"
		},
		{
			"bufferView":43,
			"componentType":5126,
			"count":60,
			"max":[
				1,
				1.4416176080703735,
				0.2622268497943878
			],
			"min":[
				-1,
				-0.051886171102523804,
				-0.2622268497943878
			],
			"type":"VEC3"
		},
		{
			"bufferView":44,
			"componentType":5126,
			"count":60,
			"type":"VEC3"
		},
		{
			"bufferView":45,
			"componentType":5126,
			"count":60,
			"type":"VEC2"
		},
		{
			"bufferView":46,
			"componentType":5123,
			"count":90,
			"type":"SCALAR"
		},
		{
			"bufferView":48,
			"componentType":5126,
			"count":12,
			"max":[
				0.9487019777297974,
				1.3878270387649536,
				0.13124403357505798
			],
			"min":[
				-0.9487019777297974,
				0.07748960703611374,
				-0.13124403357505798
			],
			"type":"VEC3"
		},
		{
			"bufferView":49,
			"componentType":5126,
			"count":12,
			"type":"VEC3"
		},
		{
			"bufferView":50,
			"componentType":5126,
			"count":12,
			"type":"VEC2"
		},
		{
			"bufferView":51,
			"componentType":5123,
			"count":18,
			"type":"SCALAR"
		}
	],
	"bufferViews":[
		{
			"buffer":0,
			"byteLength":2976,
			"byteOffset":0,
			"target":34962
		},
		{
			"buffer":0,
			"byteLength":2976,
			"byteOffset":2976,
			"target":34962
		},
		{
			"buffer":0,
			"byteLength":1984,
			"byteOffset":5952,
			"target":34962
		},
		{
			"buffer":0,
			"byteLength":792,
			"byteOffset":7936,
			"target":34963
		},
		{
			"buffer":0,
			"byteLength":22736,
			"byteOffset":8728
		},
		{
			"buffer":0,
			"byteLength":33621,
			"byteOffset":31464
		},
		{
			"buffer":0,
			"byteLength":8880,
			"byteOffset":65088,
			"target":34962
		},
		{
			"buffer":0,
			"byteLength":8880,
			"byteOffset":73968,
			"target":34962
		},
		{
			"buffer":0,
			"byteLength":5920,
			"byteOffset":82848,
			"target":34962
		},
		{
			"buffer":0,
			"byteLength":4476,
			"byteOffset":88768,
			"target":34963
		},
		{
			"buffer":0,
			"byteLength":409875,
			"byteOffset":93244
		},
		{
			"buffer":0,
			"byteLength":3456,
			"byteOffset":503120,
			"target":34962
		},
		{
			"buffer":0,
			"byteLength":3456,
			"byteOffset":506576,
			"target":34962
		},
		{
			"buffer":0,
			"byteLength":2304,
			"byteOffset":510032,
			"target":34962
		},
		{
			"buffer":0,
			"byteLength":1980,
			"byteOffset":512336,
			"target":34963
		},
		{
			"buffer":0,
			"byteLength":1344,
			"byteOffset":514316,
			"target":34962
		},
		{
			"buffer":0,
			"byteLength":1344,
			"byteOffset":515660,
			"target":34962
		},
		{
			"buffer":0,
			"byteLength":896,
			"byteOffset":517004,
			"target":34962
		},
		{
			"buffer":0,
			"byteLength":552,
			"byteOffset":517900,
			"target":34963
		},
		{
			"buffer":0,
			"byteLength":1440,
			"byteOffset":518452,
			"target":34962
		},
		{
			"buffer":0,
			"byteLength":1440,
			"byteOffset":519892,
			"target":34962
		},
		{
			"buffer":0,
			"byteLength":960,
			"byteOffset":521332,
			"target":34962
		},
		{
			"buffer":0,
			"byteLength":360,
			"byteOffset":522292,
			"target":34963
		},
		{
			"buffer":0,
			"byteLength":768,
			"byteOffset":522652,
			"target":34962
		},
		{
			"buffer":0,
			"byteLength":768,
			"byteOffset":523420,
			"target":34962
		},
		{
			"buffer":0,
			"byteLength":512,
			"byteOffset":524188,
			"target":34962
		},
		{
			"buffer":0,
			"byteLength":192,
			"byteOffset":524700,
			"target":34963
		},
		{
			"buffer":0,
			"byteLength":19019,
			"byteOffset":524892
		},
		{
			"buffer":0,
			"byteLength":1122921,
			"byteOffset":543912
		},
		{
			"buffer":0,
			"byteLength":2592,
			"byteOffset":1666836,
			"target":34962
		},
		{
			"buffer":0,
			"byteLength":2592,
			"byteOffset":1669428,
			"target":34962
		},
		{
			"buffer":0,
			"byteLength":1728,
			"byteOffset":1672020,
			"target":34962
		},
		{
			"buffer":0,
			"byteLength":792,
			"byteOffset":1673748,
			"target":34963
		},
		{
			"buffer":0,
			"byteLength":528,
			"byteOffset":1674540,
			"target":34962
		},
		{
			"buffer":0,
			"byteLength":528,
			"byteOffset":1675068,
			"target":34962
		},
		{
			"buffer":0,
			"byteLength":352,
			"byteOffset":1675596,
			"target":34962
		},
		{
			"buffer":0,
			"byteLength":132,
			"byteOffset":1675948,
			"target":34963
		},
		{
			"buffer":0,
			"byteLength":912,
			"byteOffset":1676080,
			"target":34962
		},
		{
			"buffer":0,
			"byteLength":912,
			"byteOffset":1676992,
			"target":34962
		},
		{
			"buffer":0,
			"byteLength":608,
			"byteOffset":1677904,
			"target":34962
		},
		{
			"buffer":0,
			"byteLength":228,
			"byteOffset":1678512,
			"target":34963
		},
		{
			"buffer":0,
			"byteLength":77125,
			"byteOffset":1678740
		},
		{
			"buffer":0,
			"byteLength":181476,
			"byteOffset":1755868
		},
		{
			"buffer":0,
			"byteLength":720,
			"byteOffset":1937344,
			"target":34962
		},
		{
			"buffer":0,
			"byteLength":720,
			"byteOffset":1938064,
			"target":34962
		},
		{
			"buffer":0,
			"byteLength":480,
			"byteOffset":1938784,
			"target":34962
		},
		{
			"buffer":0,
			"byteLength":180,
			"byteOffset":1939264,
			"target":34963
		},
		{
			"buffer":0,
			"byteLength":128762,
			"byteOffset":1939444
		},
		{
			"buffer":0,
			"byteLength":144,
			"byteOffset":2068208,
			"target":34962
		},
		{
			"buffer":0,
			"byteLength":144,
			"byteOffset":2068352,
			"target":34962
		},
		{
			"buffer":0,
			"byteLength":96,
			"byteOffset":2068496,
			"target":34962
		},
		{
			"buffer":0,
			"byteLength":36,
			"byteOffset":2068592,
			"target":34963
		}
	],
	"samplers":[
		{
			"magFilter":9729,
			"minFilter":9987
		}
	],
	"buffers":[
		{
			"byteLength":2068628,
			"uri":"data:application/octet-stream;base64,"
		}
	]
}
