{
	"asset":{
		"generator":"Khronos glTF Blender I/O v4.2.60",
		"version":"2.0"
	},
	"scene":0,
	"scenes":[
		{
			"name":"Scene",
			"nodes":[
				0
			]
		}
	],
	"nodes":[
		{
			"mesh":0,
			"name":"Cube",
			"scale":[
				0.5508608818054199,
				0.5508608818054199,
				0.5508608818054199
			]
		}
	],
	"materials":[
		{
			"doubleSided":true,
			"name":"Material",
			"pbrMetallicRoughness":{
				"baseColorFactor":[
					0.07957760244607925,
					0.07957760244607925,
					0.07957760244607925,
					1
				],
				"metallicFactor":0,
				"roughnessFactor":0.5
			}
		},
		{
			"doubleSided":true,
			"name":"Material.001",
			"pbrMetallicRoughness":{
				"baseColorFactor":[
					0.3626473844051361,
					0.3626473844051361,
					0.3626473844051361,
					1
				],
				"metallicFactor":0,
				"roughnessFactor":0.5
			}
		}
	],
	"meshes":[
		{
			"name":"Cube",
			"primitives":[
				{
					"attributes":{
						"POSITION":0,
						"NORMAL":1,
						"TEXCOORD_0":2
					},
					"indices":3,
					"material":0
				},
				{
					"attributes":{
						"POSITION":4,
						"NORMAL":5,
						"TEXCOORD_0":6
					},
					"indices":7,
					"material":1
				}
			]
		}
	],
	"accessors":[
		{
			"bufferView":0,
			"componentType":5126,
			"count":1276,
			"max":[
				0.07072651386260986,
				2.0489048957824707,
				0.9202206134796143
			],
			"min":[
				-2.046009063720703,
				-1.6538130044937134,
				-1.0797793865203857
			],
			"type":"VEC3"
		},
		{
			"bufferView":1,
			"componentType":5126,
			"count":1276,
			"type":"VEC3"
		},
		{
			"bufferView":2,
			"componentType":5126,
			"count":1276,
			"type":"VEC2"
		},
		{
			"bufferView":3,
			"componentType":5123,
			"count":3528,
			"type":"SCALAR"
		},
		{
			"bufferView":4,
			"componentType":5126,
			"count":309,
			"max":[
				0.07072651386260986,
				1.7625824213027954,
				0.6707158088684082
			],
			"min":[
				-0.01022481918334961,
				-1.4778860807418823,
				-0.7883342504501343
			],
			"type":"VEC3"
		},
		{
			"bufferView":5,
			"componentType":5126,
			"count":309,
			"type":"VEC3"
		},
		{
			"bufferView":6,
			"componentType":5126,
			"count":309,
			"type":"VEC2"
		},
		{
			"bufferView":7,
			"componentType":5123,
			"count":1278,
			"type":"SCALAR"
		}
	],
	"bufferViews":[
		{
			"buffer":0,
			"byteLength":15312,
			"byteOffset":0,
			"target":34962
		},
		{
			"buffer":0,
			"byteLength":15312,
			"byteOffset":15312,
			"target":34962
		},
		{
			"buffer":0,
			"byteLength":10208,
			"byteOffset":30624,
			"target":34962
		},
		{
			"buffer":0,
			"byteLength":7056,
			"byteOffset":40832,
			"target":34963
		},
		{
			"buffer":0,
			"byteLength":3708,
			"byteOffset":47888,
			"target":34962
		},
		{
			"buffer":0,
			"byteLength":3708,
			"byteOffset":51596,
			"target":34962
		},
		{
			"buffer":0,
			"byteLength":2472,
			"byteOffset":55304,
			"target":34962
		},
		{
			"buffer":0,
			"byteLength":2556,
			"byteOffset":57776,
			"target":34963
		}
	],
	"buffers":[
		{
			"byteLength":60332,
			"uri":"data:application/octet-stream;base64,"
		}
	]
}
