{
	"asset":{
		"generator":"Khronos glTF Blender I/O v4.2.60",
		"version":"2.0"
	},
	"scene":0,
	"scenes":[
		{
			"name":"Scene",
			"nodes":[
				0,
				1
			]
		}
	],
	"nodes":[
		{
			"mesh":0,
			"name":"Cylinder",
			"rotation":[
				0,
				-0.9999428391456604,
				0,
				0.010691960342228413
			]
		},
		{
			"mesh":1,
			"name":"Cube",
			"rotation":[
				0,
				-0.9999428391456604,
				0,
				0.010691959410905838
			],
			"scale":[
				1.4677282571792603,
				1.4677282571792603,
				1.4677282571792603
			]
		}
	],
	"materials":[
		{
			"doubleSided":true,
			"name":"Material.001",
			"pbrMetallicRoughness":{
				"baseColorFactor":[
					0.10183495283126831,
					0.10183495283126831,
					0.10183495283126831,
					1
				],
				"metallicFactor":0,
				"roughnessFactor":0.5
			}
		},
		{
			"doubleSided":true,
			"name":"Material.003",
			"pbrMetallicRoughness":{
				"baseColorTexture":{
					"index":0
				},
				"metallicFactor":0,
				"roughnessFactor":0.5
			}
		},
		{
			"doubleSided":true,
			"name":"Material.002",
			"pbrMetallicRoughness":{
				"baseColorFactor":[
					0.08872437477111816,
					0.044054899364709854,
					0.010514140129089355,
					1
				],
				"metallicFactor":0,
				"roughnessFactor":0.5
			}
		}
	],
	"meshes":[
		{
			"name":"Cylinder",
			"primitives":[
				{
					"attributes":{
						"POSITION":0,
						"NORMAL":1,
						"TEXCOORD_0":2
					},
					"indices":3,
					"material":0
				}
			]
		},
		{
			"name":"Cube.001",
			"primitives":[
				{
					"attributes":{
						"POSITION":4,
						"NORMAL":5,
						"TEXCOORD_0":6
					},
					"indices":7,
					"material":0
				},
				{
					"attributes":{
						"POSITION":8,
						"NORMAL":9,
						"TEXCOORD_0":10
					},
					"indices":11,
					"material":1
				},
				{
					"attributes":{
						"POSITION":12,
						"NORMAL":13,
						"TEXCOORD_0":14
					},
					"indices":15,
					"material":2
				}
			]
		}
	],
	"textures":[
		{
			"sampler":0,
			"source":0
		}
	],
	"images":[
		{
			"bufferView":12,
			"mimeType":"image/jpeg",
			"name":"whiteboard"
		}
	],
	"accessors":[
		{
			"bufferView":0,
			"componentType":5126,
			"count":96,
			"max":[
				0.1628909707069397,
				6.05699348449707,
				3.2536814212799072
			],
			"min":[
				-0.1628909707069397,
				-0.1628909707069397,
				-3.2536814212799072
			],
			"type":"VEC3"
		},
		{
			"bufferView":1,
			"componentType":5126,
			"count":96,
			"type":"VEC3"
		},
		{
			"bufferView":2,
			"componentType":5126,
			"count":96,
			"type":"VEC2"
		},
		{
			"bufferView":3,
			"componentType":5123,
			"count":168,
			"type":"SCALAR"
		},
		{
			"bufferView":4,
			"componentType":5126,
			"count":50,
			"max":[
				0.08656555414199829,
				4.07728385925293,
				2.0913095474243164
			],
			"min":[
				-0.08351248502731323,
				1.5407612323760986,
				-2.033252239227295
			],
			"type":"VEC3"
		},
		{
			"bufferView":5,
			"componentType":5126,
			"count":50,
			"type":"VEC3"
		},
		{
			"bufferView":6,
			"componentType":5126,
			"count":50,
			"type":"VEC2"
		},
		{
			"bufferView":7,
			"componentType":5123,
			"count":90,
			"type":"SCALAR"
		},
		{
			"bufferView":8,
			"componentType":5126,
			"count":4,
			"max":[
				0.027652978897094727,
				3.9757332801818848,
				2.0913095474243164
			],
			"min":[
				0.027652978897094727,
				1.6563973426818848,
				-2.033252239227295
			],
			"type":"VEC3"
		},
		{
			"bufferView":9,
			"componentType":5126,
			"count":4,
			"type":"VEC3"
		},
		{
			"bufferView":10,
			"componentType":5126,
			"count":4,
			"type":"VEC2"
		},
		{
			"bufferView":11,
			"componentType":5123,
			"count":6,
			"type":"SCALAR"
		},
		{
			"bufferView":13,
			"componentType":5126,
			"count":8,
			"max":[
				0.08656555414199829,
				3.9616479873657227,
				2.0913095474243164
			],
			"min":[
				0.027652978897094727,
				1.6563973426818848,
				-2.033252239227295
			],
			"type":"VEC3"
		},
		{
			"bufferView":14,
			"componentType":5126,
			"count":8,
			"type":"VEC3"
		},
		{
			"bufferView":15,
			"componentType":5126,
			"count":8,
			"type":"VEC2"
		},
		{
			"bufferView":16,
			"componentType":5123,
			"count":12,
			"type":"SCALAR"
		}
	],
	"bufferViews":[
		{
			"buffer":0,
			"byteLength":1152,
			"byteOffset":0,
			"target":34962
		},
		{
			"buffer":0,
			"byteLength":1152,
			"byteOffset":1152,
			"target":34962
		},
		{
			"buffer":0,
			"byteLength":768,
			"byteOffset":2304,
			"target":34962
		},
		{
			"buffer":0,
			"byteLength":336,
			"byteOffset":3072,
			"target":34963
		},
		{
			"buffer":0,
			"byteLength":600,
			"byteOffset":3408,
			"target":34962
		},
		{
			"buffer":0,
			"byteLength":600,
			"byteOffset":4008,
			"target":34962
		},
		{
			"buffer":0,
			"byteLength":400,
			"byteOffset":4608,
			"target":34962
		},
		{
			"buffer":0,
			"byteLength":180,
			"byteOffset":5008,
			"target":34963
		},
		{
			"buffer":0,
			"byteLength":48,
			"byteOffset":5188,
			"target":34962
		},
		{
			"buffer":0,
			"byteLength":48,
			"byteOffset":5236,
			"target":34962
		},
		{
			"buffer":0,
			"byteLength":32,
			"byteOffset":5284,
			"target":34962
		},
		{
			"buffer":0,
			"byteLength":12,
			"byteOffset":5316,
			"target":34963
		},
		{
			"buffer":0,
			"byteLength":81295,
			"byteOffset":5328
		},
		{
			"buffer":0,
			"byteLength":96,
			"byteOffset":86624,
			"target":34962
		},
		{
			"buffer":0,
			"byteLength":96,
			"byteOffset":86720,
			"target":34962
		},
		{
			"buffer":0,
			"byteLength":64,
			"byteOffset":86816,
			"target":34962
		},
		{
			"buffer":0,
			"byteLength":24,
			"byteOffset":86880,
			"target":34963
		}
	],
	"samplers":[
		{
			"magFilter":9729,
			"minFilter":9987
		}
	],
	"buffers":[
		{
			"byteLength":86904,
			"uri":"data:application/octet-stream;base64,"
		}
	]
}
