{
	"asset":{
		"generator":"Khronos glTF Blender I/O v4.2.60",
		"version":"2.0"
	},
	"scene":0,
	"scenes":[
		{
			"name":"Scene",
			"nodes":[
				0,
				1,
				2,
				3,
				4,
				5,
				6,
				7,
				8,
				9,
				10,
				11,
				12,
				13,
				14,
				15,
				16
			]
		}
	],
	"nodes":[
		{
			"mesh":0,
			"name":"walls",
			"rotation":[
				0,
				0.7071068286895752,
				0,
				0.7071068286895752
			],
			"scale":[
				0.2283562421798706,
				0.2283562421798706,
				0.2283562421798706
			],
			"translation":[
				-10.626463890075684,
				4.438908100128174,
				-0.172915518283844
			]
		},
		{
			"mesh":1,
			"name":"baseboard-extra2",
			"rotation":[
				0,
				0.7071068286895752,
				0,
				0.7071068286895752
			],
			"translation":[
				22.43958282470703,
				3.949899435043335,
				0.2858503758907318
			]
		},
		{
			"mesh":2,
			"name":"baseboard-extra",
			"rotation":[
				0,
				-0.7071068286895752,
				0,
				0.7071068286895752
			],
			"translation":[
				-7.652985095977783,
				6.091864585876465,
				16.248323440551758
			]
		},
		{
			"mesh":3,
			"name":"baseboard2",
			"scale":[
				0.7169342637062073,
				0.7169342637062073,
				0.7169342637062073
			],
			"translation":[
				-7.109079360961914,
				1.405038595199585,
				1.8833435773849487
			]
		},
		{
			"mesh":4,
			"name":"baseboard3",
			"rotation":[
				-0.7071067690849304,
				0,
				-0.7071068286895752,
				0
			],
			"scale":[
				-0.7169342637062073,
				-0.7169342637062073,
				-0.7169342637062073
			],
			"translation":[
				-4.225983619689941,
				1.3665382862091064,
				-4.651432037353516
			]
		},
		{
			"mesh":5,
			"name":"baseboard4",
			"rotation":[
				0,
				0,
				-1,
				0
			],
			"scale":[
				-0.7169342637062073,
				-0.7169342637062073,
				-0.7169342637062073
			],
			"translation":[
				-10.58479118347168,
				1.405038595199585,
				-2.2079014778137207
			]
		},
		{
			"mesh":6,
			"name":"baseboard5",
			"rotation":[
				0.7071067690849304,
				0,
				-0.7071068286895752,
				0
			],
			"scale":[
				-0.7169342637062073,
				-0.7169342637062073,
				-0.7169342637062073
			],
			"translation":[
				-20.380775451660156,
				1.4161889553070068,
				-0.08306562155485153
			]
		},
		{
			"mesh":7,
			"name":"roof",
			"scale":[
				2.8078107833862305,
				2.8078107833862305,
				2.8078107833862305
			],
			"translation":[
				-5.651994228363037,
				9.34277629852295,
				-0.1661880612373352
			]
		},
		{
			"mesh":8,
			"name":"pillars",
			"rotation":[
				0,
				0.7071068286895752,
				0,
				0.7071068286895752
			],
			"scale":[
				0.250618040561676,
				0.250618040561676,
				0.250618040561676
			],
			"translation":[
				-2.0102181434631348,
				1.5243008136749268,
				-0.16816264390945435
			]
		},
		{
			"mesh":9,
			"name":"Cube",
			"scale":[
				0.7169342637062073,
				0.7169342637062073,
				0.7169342637062073
			],
			"translation":[
				-10.317239761352539,
				0.6497352123260498,
				-0.16816264390945435
			]
		},
		{
			"mesh":10,
			"name":"Cube.004",
			"scale":[
				0.28026771545410156,
				0.28026771545410156,
				0.28026771545410156
			],
			"translation":[
				-1.2182432413101196,
				0.27972710132598877,
				-0.14925149083137512
			]
		},
		{
			"mesh":11,
			"name":"Plane",
			"scale":[
				4.941784381866455,
				4.941784381866455,
				4.941784381866455
			],
			"translation":[
				-1.1669111251831055,
				0.7536625862121582,
				-0.16816264390945435
			]
		},
		{
			"mesh":12,
			"name":"roof.001",
			"rotation":[
				0,
				-1,
				0,
				4.371138828673793e-08
			],
			"scale":[
				2.8078107833862305,
				2.8078107833862305,
				2.8078107833862305
			],
			"translation":[
				-23.488107681274414,
				9.756061553955078,
				-0.16618935763835907
			]
		},
		{
			"mesh":13,
			"name":"Cube.005",
			"scale":[
				0.28026771545410156,
				0.28026771545410156,
				0.28026771545410156
			],
			"translation":[
				-20.932903289794922,
				0.27972710132598877,
				-0.14925149083137512
			]
		},
		{
			"mesh":14,
			"name":"baseboard-extra.001",
			"rotation":[
				0,
				-0.7071068286895752,
				0,
				0.7071068286895752
			],
			"scale":[
				0.7083332538604736,
				0.7083332538604736,
				0.7083332538604736
			],
			"translation":[
				-25.609786987304688,
				1.3964985609054565,
				12.980935096740723
			]
		},
		{
			"mesh":15,
			"name":"baseboard5.001",
			"rotation":[
				0.7071067690849304,
				0,
				-0.7071068286895752,
				0
			],
			"scale":[
				-0.7169342637062073,
				-0.7169342637062073,
				-0.7169342637062073
			],
			"translation":[
				-20.380775451660156,
				1.4161889553070068,
				20.691455841064453
			]
		},
		{
			"mesh":16,
			"name":"cleanedup_baseboard",
			"rotation":[
				0.7071067690849304,
				0,
				-0.7071068286895752,
				0
			],
			"scale":[
				-0.7169342637062073,
				-0.7169342637062073,
				-0.7169342637062073
			],
			"translation":[
				-20.380775451660156,
				1.4161889553070068,
				14.355386734008789
			]
		}
	],
	"meshes":[
		{
			"name":"Cube.005",
			"primitives":[
				{
					"attributes":{
						"POSITION":0,
						"NORMAL":1,
						"TEXCOORD_0":2
					},
					"indices":3
				}
			]
		},
		{
			"name":"Cube.013",
			"primitives":[
				{
					"attributes":{
						"POSITION":4,
						"NORMAL":5,
						"TEXCOORD_0":6
					},
					"indices":7
				}
			]
		},
		{
			"name":"Cube.023",
			"primitives":[
				{
					"attributes":{
						"POSITION":8,
						"NORMAL":9,
						"TEXCOORD_0":10
					},
					"indices":7
				}
			]
		},
		{
			"name":"Cube.025",
			"primitives":[
				{
					"attributes":{
						"POSITION":11,
						"NORMAL":12,
						"TEXCOORD_0":13
					},
					"indices":7
				}
			]
		},
		{
			"name":"Cube.028",
			"primitives":[
				{
					"attributes":{
						"POSITION":14,
						"NORMAL":15,
						"TEXCOORD_0":16
					},
					"indices":17
				}
			]
		},
		{
			"name":"Cube.033",
			"primitives":[
				{
					"attributes":{
						"POSITION":18,
						"NORMAL":19,
						"TEXCOORD_0":20
					},
					"indices":7
				}
			]
		},
		{
			"name":"Cube.034",
			"primitives":[
				{
					"attributes":{
						"POSITION":21,
						"NORMAL":22,
						"TEXCOORD_0":23
					},
					"indices":24
				}
			]
		},
		{
			"name":"Cube.002",
			"primitives":[
				{
					"attributes":{
						"POSITION":25,
						"NORMAL":26,
						"TEXCOORD_0":27
					},
					"indices":28
				}
			]
		},
		{
			"name":"Cube.014",
			"primitives":[
				{
					"attributes":{
						"POSITION":29,
						"NORMAL":30,
						"TEXCOORD_0":31
					},
					"indices":32
				}
			]
		},
		{
			"name":"Cube.016",
			"primitives":[
				{
					"attributes":{
						"POSITION":33,
						"NORMAL":34,
						"TEXCOORD_0":35
					},
					"indices":36
				}
			]
		},
		{
			"name":"Cube.018",
			"primitives":[
				{
					"attributes":{
						"POSITION":37,
						"NORMAL":38,
						"TEXCOORD_0":39
					},
					"indices":36
				}
			]
		},
		{
			"name":"Plane.001",
			"primitives":[
				{
					"attributes":{
						"POSITION":40,
						"NORMAL":41,
						"TEXCOORD_0":42
					},
					"indices":43
				}
			]
		},
		{
			"name":"Cube.019",
			"primitives":[
				{
					"attributes":{
						"POSITION":44,
						"NORMAL":45,
						"TEXCOORD_0":46
					},
					"indices":47
				}
			]
		},
		{
			"name":"Cube.020",
			"primitives":[
				{
					"attributes":{
						"POSITION":48,
						"NORMAL":49,
						"TEXCOORD_0":50
					},
					"indices":36
				}
			]
		},
		{
			"name":"Cube.021",
			"primitives":[
				{
					"attributes":{
						"POSITION":51,
						"NORMAL":52,
						"TEXCOORD_0":53
					},
					"indices":7
				}
			]
		},
		{
			"name":"Cube.022",
			"primitives":[
				{
					"attributes":{
						"POSITION":54,
						"NORMAL":55,
						"TEXCOORD_0":56
					},
					"indices":24
				}
			]
		},
		{
			"name":"Cube.024",
			"primitives":[
				{
					"attributes":{
						"POSITION":57,
						"NORMAL":58,
						"TEXCOORD_0":59
					},
					"indices":24
				}
			]
		}
	],
	"accessors":[
		{
			"bufferView":0,
			"componentType":5126,
			"count":976,
			"max":[
				24.98915672302246,
				12.953454971313477,
				67.41204071044922
			],
			"min":[
				-25.22948455810547,
				-16.32547950744629,
				-67.626708984375
			],
			"type":"VEC3"
		},
		{
			"bufferView":1,
			"componentType":5126,
			"count":976,
			"type":"VEC3"
		},
		{
			"bufferView":2,
			"componentType":5126,
			"count":976,
			"type":"VEC2"
		},
		{
			"bufferView":3,
			"componentType":5123,
			"count":1548,
			"type":"SCALAR"
		},
		{
			"bufferView":4,
			"componentType":5126,
			"count":44,
			"max":[
				6.413947105407715,
				0.3947141766548157,
				0.06779587268829346
			],
			"min":[
				-6.479712963104248,
				-0.9699782729148865,
				-0.10167807340621948
			],
			"type":"VEC3"
		},
		{
			"bufferView":5,
			"componentType":5126,
			"count":44,
			"type":"VEC3"
		},
		{
			"bufferView":6,
			"componentType":5126,
			"count":44,
			"type":"VEC2"
		},
		{
			"bufferView":7,
			"componentType":5123,
			"count":84,
			"type":"SCALAR"
		},
		{
			"bufferView":8,
			"componentType":5126,
			"count":44,
			"max":[
				1.4252512454986572,
				0.3947141468524933,
				0.06779617071151733
			],
			"min":[
				-1.4252495765686035,
				-0.9699782729148865,
				-0.10167822241783142
			],
			"type":"VEC3"
		},
		{
			"bufferView":9,
			"componentType":5126,
			"count":44,
			"type":"VEC3"
		},
		{
			"bufferView":10,
			"componentType":5126,
			"count":44,
			"type":"VEC2"
		},
		{
			"bufferView":11,
			"componentType":5126,
			"count":44,
			"max":[
				1.4252512454986572,
				0.3947141468524933,
				0.06779617071151733
			],
			"min":[
				-11.121292114257812,
				-0.9699782729148865,
				-0.10167822241783142
			],
			"type":"VEC3"
		},
		{
			"bufferView":12,
			"componentType":5126,
			"count":44,
			"type":"VEC3"
		},
		{
			"bufferView":13,
			"componentType":5126,
			"count":44,
			"type":"VEC2"
		},
		{
			"bufferView":14,
			"componentType":5126,
			"count":420,
			"max":[
				0.5965805053710938,
				0.447945237159729,
				2.108675956726074
			],
			"min":[
				-13.129605293273926,
				-0.9172976613044739,
				-11.158839225769043
			],
			"type":"VEC3"
		},
		{
			"bufferView":15,
			"componentType":5126,
			"count":420,
			"type":"VEC3"
		},
		{
			"bufferView":16,
			"componentType":5126,
			"count":420,
			"type":"VEC2"
		},
		{
			"bufferView":17,
			"componentType":5123,
			"count":669,
			"type":"SCALAR"
		},
		{
			"bufferView":18,
			"componentType":5126,
			"count":44,
			"max":[
				6.273271560668945,
				0.3947141468524933,
				0.06779617071151733
			],
			"min":[
				-6.2732720375061035,
				-0.9699782729148865,
				-0.10167822241783142
			],
			"type":"VEC3"
		},
		{
			"bufferView":19,
			"componentType":5126,
			"count":44,
			"type":"VEC3"
		},
		{
			"bufferView":20,
			"componentType":5126,
			"count":44,
			"type":"VEC2"
		},
		{
			"bufferView":21,
			"componentType":5126,
			"count":482,
			"max":[
				6.7722673416137695,
				0.42649561166763306,
				6.7386345863342285
			],
			"min":[
				-6.951908588409424,
				-0.9387472867965698,
				-7.279006004333496
			],
			"type":"VEC3"
		},
		{
			"bufferView":22,
			"componentType":5126,
			"count":482,
			"type":"VEC3"
		},
		{
			"bufferView":23,
			"componentType":5126,
			"count":482,
			"type":"VEC2"
		},
		{
			"bufferView":24,
			"componentType":5123,
			"count":822,
			"type":"SCALAR"
		},
		{
			"bufferView":25,
			"componentType":5126,
			"count":211,
			"max":[
				3.874660015106201,
				1.0424152612686157,
				1.7268208265304565
			],
			"min":[
				-3.763113498687744,
				-0.7861558794975281,
				-1.7268208265304565
			],
			"type":"VEC3"
		},
		{
			"bufferView":26,
			"componentType":5126,
			"count":211,
			"type":"VEC3"
		},
		{
			"bufferView":27,
			"componentType":5126,
			"count":211,
			"type":"VEC2"
		},
		{
			"bufferView":28,
			"componentType":5123,
			"count":630,
			"type":"SCALAR"
		},
		{
			"bufferView":29,
			"componentType":5126,
			"count":240,
			"max":[
				11.784880638122559,
				23.21409797668457,
				-72.4509506225586
			],
			"min":[
				-11.784880638122559,
				-3.1364104747772217,
				-77.45269012451172
			],
			"type":"VEC3"
		},
		{
			"bufferView":30,
			"componentType":5126,
			"count":240,
			"type":"VEC3"
		},
		{
			"bufferView":31,
			"componentType":5126,
			"count":240,
			"type":"VEC2"
		},
		{
			"bufferView":32,
			"componentType":5123,
			"count":360,
			"type":"SCALAR"
		},
		{
			"bufferView":33,
			"componentType":5126,
			"count":48,
			"max":[
				5.671998977661133,
				9.553584098815918,
				3.9531373977661133
			],
			"min":[
				-6.532227993011475,
				9.116286277770996,
				-3.9531373977661133
			],
			"type":"VEC3"
		},
		{
			"bufferView":34,
			"componentType":5126,
			"count":48,
			"type":"VEC3"
		},
		{
			"bufferView":35,
			"componentType":5126,
			"count":48,
			"type":"VEC2"
		},
		{
			"bufferView":36,
			"componentType":5123,
			"count":72,
			"type":"SCALAR"
		},
		{
			"bufferView":37,
			"componentType":5126,
			"count":48,
			"max":[
				22.027164459228516,
				26.25525665283203,
				21.20092010498047
			],
			"min":[
				-19.048542022705078,
				25.07292938232422,
				-21.20092010498047
			],
			"type":"VEC3"
		},
		{
			"bufferView":38,
			"componentType":5126,
			"count":48,
			"type":"VEC3"
		},
		{
			"bufferView":39,
			"componentType":5126,
			"count":48,
			"type":"VEC2"
		},
		{
			"bufferView":40,
			"componentType":5126,
			"count":12,
			"max":[
				1,
				0,
				1.0000001192092896
			],
			"min":[
				-4.947819232940674,
				0,
				-1.0000001192092896
			],
			"type":"VEC3"
		},
		{
			"bufferView":41,
			"componentType":5126,
			"count":12,
			"type":"VEC3"
		},
		{
			"bufferView":42,
			"componentType":5126,
			"count":12,
			"type":"VEC2"
		},
		{
			"bufferView":43,
			"componentType":5123,
			"count":18,
			"type":"SCALAR"
		},
		{
			"bufferView":44,
			"componentType":5126,
			"count":80,
			"max":[
				1.1219258308410645,
				0.8952239751815796,
				1.7268208265304565
			],
			"min":[
				-2.6561131477355957,
				-0.8665501475334167,
				-1.7268208265304565
			],
			"type":"VEC3"
		},
		{
			"bufferView":45,
			"componentType":5126,
			"count":80,
			"type":"VEC3"
		},
		{
			"bufferView":46,
			"componentType":5126,
			"count":80,
			"type":"VEC2"
		},
		{
			"bufferView":47,
			"componentType":5123,
			"count":234,
			"type":"SCALAR"
		},
		{
			"bufferView":48,
			"componentType":5126,
			"count":48,
			"max":[
				22.027164459228516,
				26.25525665283203,
				21.20092010498047
			],
			"min":[
				-19.048542022705078,
				25.07292938232422,
				-21.20092010498047
			],
			"type":"VEC3"
		},
		{
			"bufferView":49,
			"componentType":5126,
			"count":48,
			"type":"VEC3"
		},
		{
			"bufferView":50,
			"componentType":5126,
			"count":48,
			"type":"VEC2"
		},
		{
			"bufferView":51,
			"componentType":5126,
			"count":44,
			"max":[
				1.4252504110336304,
				0.3947141468524933,
				0.06779617071151733
			],
			"min":[
				-1.4252504110336304,
				-0.9699782729148865,
				-0.10167822241783142
			],
			"type":"VEC3"
		},
		{
			"bufferView":52,
			"componentType":5126,
			"count":44,
			"type":"VEC3"
		},
		{
			"bufferView":53,
			"componentType":5126,
			"count":44,
			"type":"VEC2"
		},
		{
			"bufferView":54,
			"componentType":5126,
			"count":482,
			"max":[
				6.7722673416137695,
				0.42649561166763306,
				6.7386345863342285
			],
			"min":[
				-6.951908588409424,
				-0.9387472867965698,
				-7.279006004333496
			],
			"type":"VEC3"
		},
		{
			"bufferView":55,
			"componentType":5126,
			"count":482,
			"type":"VEC3"
		},
		{
			"bufferView":56,
			"componentType":5126,
			"count":482,
			"type":"VEC2"
		},
		{
			"bufferView":57,
			"componentType":5126,
			"count":482,
			"max":[
				6.7722673416137695,
				0.42649561166763306,
				6.7386345863342285
			],
			"min":[
				-6.951908588409424,
				-0.9387472867965698,
				-7.279006004333496
			],
			"type":"VEC3"
		},
		{
			"bufferView":58,
			"componentType":5126,
			"count":482,
			"type":"VEC3"
		},
		{
			"bufferView":59,
			"componentType":5126,
			"count":482,
			"type":"VEC2"
		}
	],
	"bufferViews":[
		{
			"buffer":0,
			"byteLength":11712,
			"byteOffset":0,
			"target":34962
		},
		{
			"buffer":0,
			"byteLength":11712,
			"byteOffset":11712,
			"target":34962
		},
		{
			"buffer":0,
			"byteLength":7808,
			"byteOffset":23424,
			"target":34962
		},
		{
			"buffer":0,
			"byteLength":3096,
			"byteOffset":31232,
			"target":34963
		},
		{
			"buffer":0,
			"byteLength":528,
			"byteOffset":34328,
			"target":34962
		},
		{
			"buffer":0,
			"byteLength":528,
			"byteOffset":34856,
			"target":34962
		},
		{
			"buffer":0,
			"byteLength":352,
			"byteOffset":35384,
			"target":34962
		},
		{
			"buffer":0,
			"byteLength":168,
			"byteOffset":35736,
			"target":34963
		},
		{
			"buffer":0,
			"byteLength":528,
			"byteOffset":35904,
			"target":34962
		},
		{
			"buffer":0,
			"byteLength":528,
			"byteOffset":36432,
			"target":34962
		},
		{
			"buffer":0,
			"byteLength":352,
			"byteOffset":36960,
			"target":34962
		},
		{
			"buffer":0,
			"byteLength":528,
			"byteOffset":37312,
			"target":34962
		},
		{
			"buffer":0,
			"byteLength":528,
			"byteOffset":37840,
			"target":34962
		},
		{
			"buffer":0,
			"byteLength":352,
			"byteOffset":38368,
			"target":34962
		},
		{
			"buffer":0,
			"byteLength":5040,
			"byteOffset":38720,
			"target":34962
		},
		{
			"buffer":0,
			"byteLength":5040,
			"byteOffset":43760,
			"target":34962
		},
		{
			"buffer":0,
			"byteLength":3360,
			"byteOffset":48800,
			"target":34962
		},
		{
			"buffer":0,
			"byteLength":1338,
			"byteOffset":52160,
			"target":34963
		},
		{
			"buffer":0,
			"byteLength":528,
			"byteOffset":53500,
			"target":34962
		},
		{
			"buffer":0,
			"byteLength":528,
			"byteOffset":54028,
			"target":34962
		},
		{
			"buffer":0,
			"byteLength":352,
			"byteOffset":54556,
			"target":34962
		},
		{
			"buffer":0,
			"byteLength":5784,
			"byteOffset":54908,
			"target":34962
		},
		{
			"buffer":0,
			"byteLength":5784,
			"byteOffset":60692,
			"target":34962
		},
		{
			"buffer":0,
			"byteLength":3856,
			"byteOffset":66476,
			"target":34962
		},
		{
			"buffer":0,
			"byteLength":1644,
			"byteOffset":70332,
			"target":34963
		},
		{
			"buffer":0,
			"byteLength":2532,
			"byteOffset":71976,
			"target":34962
		},
		{
			"buffer":0,
			"byteLength":2532,
			"byteOffset":74508,
			"target":34962
		},
		{
			"buffer":0,
			"byteLength":1688,
			"byteOffset":77040,
			"target":34962
		},
		{
			"buffer":0,
			"byteLength":1260,
			"byteOffset":78728,
			"target":34963
		},
		{
			"buffer":0,
			"byteLength":2880,
			"byteOffset":79988,
			"target":34962
		},
		{
			"buffer":0,
			"byteLength":2880,
			"byteOffset":82868,
			"target":34962
		},
		{
			"buffer":0,
			"byteLength":1920,
			"byteOffset":85748,
			"target":34962
		},
		{
			"buffer":0,
			"byteLength":720,
			"byteOffset":87668,
			"target":34963
		},
		{
			"buffer":0,
			"byteLength":576,
			"byteOffset":88388,
			"target":34962
		},
		{
			"buffer":0,
			"byteLength":576,
			"byteOffset":88964,
			"target":34962
		},
		{
			"buffer":0,
			"byteLength":384,
			"byteOffset":89540,
			"target":34962
		},
		{
			"buffer":0,
			"byteLength":144,
			"byteOffset":89924,
			"target":34963
		},
		{
			"buffer":0,
			"byteLength":576,
			"byteOffset":90068,
			"target":34962
		},
		{
			"buffer":0,
			"byteLength":576,
			"byteOffset":90644,
			"target":34962
		},
		{
			"buffer":0,
			"byteLength":384,
			"byteOffset":91220,
			"target":34962
		},
		{
			"buffer":0,
			"byteLength":144,
			"byteOffset":91604,
			"target":34962
		},
		{
			"buffer":0,
			"byteLength":144,
			"byteOffset":91748,
			"target":34962
		},
		{
			"buffer":0,
			"byteLength":96,
			"byteOffset":91892,
			"target":34962
		},
		{
			"buffer":0,
			"byteLength":36,
			"byteOffset":91988,
			"target":34963
		},
		{
			"buffer":0,
			"byteLength":960,
			"byteOffset":92024,
			"target":34962
		},
		{
			"buffer":0,
			"byteLength":960,
			"byteOffset":92984,
			"target":34962
		},
		{
			"buffer":0,
			"byteLength":640,
			"byteOffset":93944,
			"target":34962
		},
		{
			"buffer":0,
			"byteLength":468,
			"byteOffset":94584,
			"target":34963
		},
		{
			"buffer":0,
			"byteLength":576,
			"byteOffset":95052,
			"target":34962
		},
		{
			"buffer":0,
			"byteLength":576,
			"byteOffset":95628,
			"target":34962
		},
		{
			"buffer":0,
			"byteLength":384,
			"byteOffset":96204,
			"target":34962
		},
		{
			"buffer":0,
			"byteLength":528,
			"byteOffset":96588,
			"target":34962
		},
		{
			"buffer":0,
			"byteLength":528,
			"byteOffset":97116,
			"target":34962
		},
		{
			"buffer":0,
			"byteLength":352,
			"byteOffset":97644,
			"target":34962
		},
		{
			"buffer":0,
			"byteLength":5784,
			"byteOffset":97996,
			"target":34962
		},
		{
			"buffer":0,
			"byteLength":5784,
			"byteOffset":103780,
			"target":34962
		},
		{
			"buffer":0,
			"byteLength":3856,
			"byteOffset":109564,
			"target":34962
		},
		{
			"buffer":0,
			"byteLength":5784,
			"byteOffset":113420,
			"target":34962
		},
		{
			"buffer":0,
			"byteLength":5784,
			"byteOffset":119204,
			"target":34962
		},
		{
			"buffer":0,
			"byteLength":3856,
			"byteOffset":124988,
			"target":34962
		}
	],
	"buffers":[
		{
			"byteLength":128844,
			"uri":"data:application/octet-stream;base64,"
		}
	]
}
