{
	"asset":{
		"generator":"Khronos glTF Blender I/O v4.2.60",
		"version":"2.0"
	},
	"scene":0,
	"scenes":[
		{
			"name":"Scene",
			"nodes":[
				0
			]
		}
	],
	"nodes":[
		{
			"mesh":0,
			"name":"Cube.004",
			"rotation":[
				0,
				0.7071068286895752,
				0,
				0.7071068286895752
			],
			"scale":[
				0.49530476331710815,
				0.49530476331710815,
				0.49530476331710815
			],
			"translation":[
				-10.743118286132812,
				9.21099853515625,
				-0.5132805109024048
			]
		}
	],
	"meshes":[
		{
			"name":"Cube.005",
			"primitives":[
				{
					"attributes":{
						"POSITION":0,
						"NORMAL":1,
						"TEXCOORD_0":2
					},
					"indices":3
				}
			]
		}
	],
	"accessors":[
		{
			"bufferView":0,
			"componentType":5126,
			"count":2320,
			"max":[
				39.0257568359375,
				6.714925765991211,
				45.92649841308594
			],
			"min":[
				-41.117332458496094,
				-21.62567138671875,
				-164.81948852539062
			],
			"type":"VEC3"
		},
		{
			"bufferView":1,
			"componentType":5126,
			"count":2320,
			"type":"VEC3"
		},
		{
			"bufferView":2,
			"componentType":5126,
			"count":2320,
			"type":"VEC2"
		},
		{
			"bufferView":3,
			"componentType":5123,
			"count":3660,
			"type":"SCALAR"
		}
	],
	"bufferViews":[
		{
			"buffer":0,
			"byteLength":27840,
			"byteOffset":0,
			"target":34962
		},
		{
			"buffer":0,
			"byteLength":27840,
			"byteOffset":27840,
			"target":34962
		},
		{
			"buffer":0,
			"byteLength":18560,
			"byteOffset":55680,
			"target":34962
		},
		{
			"buffer":0,
			"byteLength":7320,
			"byteOffset":74240,
			"target":34963
		}
	],
	"buffers":[
		{
			"byteLength":81560,
			"uri":"capstone_blockout.bin"
		}
	]
}
