{
	"asset":{
		"generator":"Khronos glTF Blender I/O v4.2.60",
		"version":"2.0"
	},
	"scene":0,
	"scenes":[
		{
			"name":"Scene",
			"nodes":[
				0,
				1,
				2
			]
		}
	],
	"nodes":[
		{
			"mesh":0,
			"name":"Cube",
			"scale":[
				3.9605298042297363,
				3.9605298042297363,
				3.9605298042297363
			]
		},
		{
			"mesh":1,
			"name":"Cube.001",
			"scale":[
				3.9605298042297363,
				3.9605298042297363,
				3.9605298042297363
			],
			"translation":[
				0,
				0,
				-9.868217468261719
			]
		},
		{
			"mesh":2,
			"name":"Cube.002",
			"scale":[
				3.9605298042297363,
				3.9605298042297363,
				3.9605298042297363
			],
			"translation":[
				0,
				0,
				-19.851945877075195
			]
		}
	],
	"materials":[
		{
			"doubleSided":true,
			"name":"Material",
			"pbrMetallicRoughness":{
				"baseColorFactor":[
					0.8006061315536499,
					0.5747585296630859,
					0.2943061292171478,
					1
				],
				"metallicFactor":0,
				"roughnessFactor":0.5
			}
		},
		{
			"doubleSided":true,
			"name":"Material.001",
			"pbrMetallicRoughness":{
				"baseColorTexture":{
					"index":0
				},
				"metallicFactor":0,
				"roughnessFactor":0.5
			}
		},
		{
			"doubleSided":true,
			"name":"Material.002",
			"pbrMetallicRoughness":{
				"baseColorTexture":{
					"index":1
				},
				"metallicFactor":0,
				"roughnessFactor":0.5
			}
		},
		{
			"doubleSided":true,
			"name":"Material.003",
			"pbrMetallicRoughness":{
				"baseColorTexture":{
					"index":2
				},
				"metallicFactor":0,
				"roughnessFactor":0.5
			}
		}
	],
	"meshes":[
		{
			"name":"Cube",
			"primitives":[
				{
					"attributes":{
						"POSITION":0,
						"NORMAL":1,
						"TEXCOORD_0":2
					},
					"indices":3,
					"material":0
				},
				{
					"attributes":{
						"POSITION":4,
						"NORMAL":5,
						"TEXCOORD_0":6
					},
					"indices":7,
					"material":1
				}
			]
		},
		{
			"name":"Cube.001",
			"primitives":[
				{
					"attributes":{
						"POSITION":8,
						"NORMAL":9,
						"TEXCOORD_0":10
					},
					"indices":3,
					"material":0
				},
				{
					"attributes":{
						"POSITION":11,
						"NORMAL":12,
						"TEXCOORD_0":13
					},
					"indices":7,
					"material":2
				}
			]
		},
		{
			"name":"Cube.002",
			"primitives":[
				{
					"attributes":{
						"POSITION":14,
						"NORMAL":15,
						"TEXCOORD_0":16
					},
					"indices":3,
					"material":0
				},
				{
					"attributes":{
						"POSITION":17,
						"NORMAL":18,
						"TEXCOORD_0":19
					},
					"indices":7,
					"material":3
				}
			]
		}
	],
	"textures":[
		{
			"sampler":0,
			"source":0
		},
		{
			"sampler":0,
			"source":1
		},
		{
			"sampler":0,
			"source":2
		}
	],
	"images":[
		{
			"bufferView":8,
			"mimeType":"image/png",
			"name":"illustrator project coleson dyck"
		},
		{
			"bufferView":15,
			"mimeType":"image/jpeg",
			"name":"surreal"
		},
		{
			"bufferView":22,
			"mimeType":"image/png",
			"name":"CC_poser"
		}
	],
	"accessors":[
		{
			"bufferView":0,
			"componentType":5126,
			"count":68,
			"max":[
				0.11341015249490738,
				1.5730936527252197,
				1
			],
			"min":[
				-0.15249216556549072,
				-1,
				-1
			],
			"type":"VEC3"
		},
		{
			"bufferView":1,
			"componentType":5126,
			"count":68,
			"type":"VEC3"
		},
		{
			"bufferView":2,
			"componentType":5126,
			"count":68,
			"type":"VEC2"
		},
		{
			"bufferView":3,
			"componentType":5123,
			"count":102,
			"type":"SCALAR"
		},
		{
			"bufferView":4,
			"componentType":5126,
			"count":4,
			"max":[
				0.06187204271554947,
				1.453002691268921,
				0.8799090385437012
			],
			"min":[
				0.06187204271554947,
				-0.8799090385437012,
				-0.8799090385437012
			],
			"type":"VEC3"
		},
		{
			"bufferView":5,
			"componentType":5126,
			"count":4,
			"type":"VEC3"
		},
		{
			"bufferView":6,
			"componentType":5126,
			"count":4,
			"type":"VEC2"
		},
		{
			"bufferView":7,
			"componentType":5123,
			"count":6,
			"type":"SCALAR"
		},
		{
			"bufferView":9,
			"componentType":5126,
			"count":68,
			"max":[
				0.11341015249490738,
				1.5730936527252197,
				1
			],
			"min":[
				-0.15249216556549072,
				-1,
				-1
			],
			"type":"VEC3"
		},
		{
			"bufferView":10,
			"componentType":5126,
			"count":68,
			"type":"VEC3"
		},
		{
			"bufferView":11,
			"componentType":5126,
			"count":68,
			"type":"VEC2"
		},
		{
			"bufferView":12,
			"componentType":5126,
			"count":4,
			"max":[
				0.06187204271554947,
				1.453002691268921,
				0.8799090385437012
			],
			"min":[
				0.06187204271554947,
				-0.8799090385437012,
				-0.8799090385437012
			],
			"type":"VEC3"
		},
		{
			"bufferView":13,
			"componentType":5126,
			"count":4,
			"type":"VEC3"
		},
		{
			"bufferView":14,
			"componentType":5126,
			"count":4,
			"type":"VEC2"
		},
		{
			"bufferView":16,
			"componentType":5126,
			"count":68,
			"max":[
				0.11341015249490738,
				1.5730936527252197,
				1
			],
			"min":[
				-0.15249216556549072,
				-1,
				-1
			],
			"type":"VEC3"
		},
		{
			"bufferView":17,
			"componentType":5126,
			"count":68,
			"type":"VEC3"
		},
		{
			"bufferView":18,
			"componentType":5126,
			"count":68,
			"type":"VEC2"
		},
		{
			"bufferView":19,
			"componentType":5126,
			"count":4,
			"max":[
				0.06187204271554947,
				1.453002691268921,
				0.8799090385437012
			],
			"min":[
				0.06187204271554947,
				-0.8799090385437012,
				-0.8799090385437012
			],
			"type":"VEC3"
		},
		{
			"bufferView":20,
			"componentType":5126,
			"count":4,
			"type":"VEC3"
		},
		{
			"bufferView":21,
			"componentType":5126,
			"count":4,
			"type":"VEC2"
		}
	],
	"bufferViews":[
		{
			"buffer":0,
			"byteLength":816,
			"byteOffset":0,
			"target":34962
		},
		{
			"buffer":0,
			"byteLength":816,
			"byteOffset":816,
			"target":34962
		},
		{
			"buffer":0,
			"byteLength":544,
			"byteOffset":1632,
			"target":34962
		},
		{
			"buffer":0,
			"byteLength":204,
			"byteOffset":2176,
			"target":34963
		},
		{
			"buffer":0,
			"byteLength":48,
			"byteOffset":2380,
			"target":34962
		},
		{
			"buffer":0,
			"byteLength":48,
			"byteOffset":2428,
			"target":34962
		},
		{
			"buffer":0,
			"byteLength":32,
			"byteOffset":2476,
			"target":34962
		},
		{
			"buffer":0,
			"byteLength":12,
			"byteOffset":2508,
			"target":34963
		},
		{
			"buffer":0,
			"byteLength":62495,
			"byteOffset":2520
		},
		{
			"buffer":0,
			"byteLength":816,
			"byteOffset":65016,
			"target":34962
		},
		{
			"buffer":0,
			"byteLength":816,
			"byteOffset":65832,
			"target":34962
		},
		{
			"buffer":0,
			"byteLength":544,
			"byteOffset":66648,
			"target":34962
		},
		{
			"buffer":0,
			"byteLength":48,
			"byteOffset":67192,
			"target":34962
		},
		{
			"buffer":0,
			"byteLength":48,
			"byteOffset":67240,
			"target":34962
		},
		{
			"buffer":0,
			"byteLength":32,
			"byteOffset":67288,
			"target":34962
		},
		{
			"buffer":0,
			"byteLength":588886,
			"byteOffset":67320
		},
		{
			"buffer":0,
			"byteLength":816,
			"byteOffset":656208,
			"target":34962
		},
		{
			"buffer":0,
			"byteLength":816,
			"byteOffset":657024,
			"target":34962
		},
		{
			"buffer":0,
			"byteLength":544,
			"byteOffset":657840,
			"target":34962
		},
		{
			"buffer":0,
			"byteLength":48,
			"byteOffset":658384,
			"target":34962
		},
		{
			"buffer":0,
			"byteLength":48,
			"byteOffset":658432,
			"target":34962
		},
		{
			"buffer":0,
			"byteLength":32,
			"byteOffset":658480,
			"target":34962
		},
		{
			"buffer":0,
			"byteLength":409875,
			"byteOffset":658512
		}
	],
	"samplers":[
		{
			"magFilter":9729,
			"minFilter":9987
		}
	],
	"buffers":[
		{
			"byteLength":1068388,
			"uri":"data:application/octet-stream;base64,"
		}
	]
}
